<svg width="1200" height="630" viewBox="0 0 1200 630" xmlns="http://www.w3.org/2000/svg" role="img" aria-labelledby="title desc">
  <title id="title">Future of AI 2026</title>
  <desc id="desc">Open Graph cover image with a dark blue background for the Future of AI 2026 article.</desc>
  <defs>
    <linearGradient id="glow" x1="0%" y1="0%" x2="100%" y2="0%">
      <stop offset="0%" stop-color="#2446b5" stop-opacity="0.4"/>
      <stop offset="100%" stop-color="#3cd0d3" stop-opacity="0.55"/>
    </linearGradient>
    <linearGradient id="beam" x1="0%" y1="0%" x2="0%" y2="100%">
      <stop offset="0%" stop-color="#3cd0d3" stop-opacity="0.35"/>
      <stop offset="100%" stop-color="#2446b5" stop-opacity="0"/>
    </linearGradient>
    <filter id="shadow" x="-10%" y="-10%" width="120%" height="120%">
      <feDropShadow dx="0" dy="14" stdDeviation="24" flood-color="#0a1027" flood-opacity="0.45"/>
    </filter>
  </defs>

  <rect width="1200" height="630" fill="#0b1d3a"/>
  <rect x="80" y="90" width="1040" height="450" rx="28" fill="url(#glow)" opacity="0.7" filter="url(#shadow)"/>
  <rect x="80" y="90" width="1040" height="450" rx="28" fill="rgba(255,255,255,0.02)" stroke="rgba(255,255,255,0.12)" />
  <rect x="1000" y="70" width="14" height="420" fill="url(#beam)" opacity="0.8"/>
  <circle cx="1030" cy="510" r="70" fill="rgba(60,208,211,0.12)" />

  <text x="120" y="210" fill="#9fb6ff" font-size="22" font-family="Space Grotesk, 'IBM Plex Sans', 'Inter', sans-serif" letter-spacing="4" text-transform="uppercase">
    Research Series
  </text>
  <text x="120" y="300" fill="#ffffff" font-size="78" font-family="Space Grotesk, 'IBM Plex Sans', 'Inter', sans-serif" font-weight="700" letter-spacing="-1">
    Future of AI 2026
  </text>
  <text x="120" y="360" fill="#c7d2fe" font-size="28" font-family="IBM Plex Sans, 'Inter', system-ui, sans-serif" font-weight="500" letter-spacing="0">
    Systems, policy, and engineering breakthroughs shaping the next wave
  </text>

  <g fill="#3cd0d3" opacity="0.7">
    <rect x="120" y="410" width="90" height="4" rx="2"/>
    <rect x="230" y="410" width="40" height="4" rx="2"/>
    <rect x="290" y="410" width="14" height="4" rx="2"/>
  </g>

  <g fill="none" stroke="#3cd0d3" stroke-opacity="0.5" stroke-width="3">
    <path d="M870 250c30 14 58 42 70 74 14 36 8 78-6 112" stroke-linecap="round"/>
    <path d="M910 240c26 20 48 52 52 86 4 34-8 70-30 96" stroke-linecap="round" stroke-dasharray="14 12"/>
  </g>
</svg>
