<svg width="520" height="520" viewBox="0 0 520 520" xmlns="http://www.w3.org/2000/svg" role="img" aria-label="Subtle grid pattern">
  <defs>
    <linearGradient id="g1" x1="0" y1="0" x2="1" y2="1">
      <stop offset="0%" stop-color="#2446b5" stop-opacity="0.14"/>
      <stop offset="100%" stop-color="#3cd0d3" stop-opacity="0.16"/>
    </linearGradient>
  </defs>
  <rect width="520" height="520" fill="url(#g1)" opacity="0.55"/>
  <g stroke="#2446b5" stroke-opacity="0.14" stroke-width="1">
    <path d="M40 0v520M80 0v520M120 0v520M160 0v520M200 0v520M240 0v520M280 0v520M320 0v520M360 0v520M400 0v520M440 0v520M480 0v520"/>
    <path d="M0 40h520M0 80h520M0 120h520M0 160h520M0 200h520M0 240h520M0 280h520M0 320h520M0 360h520M0 400h520M0 440h520M0 480h520"/>
  </g>
  <circle cx="460" cy="60" r="28" fill="#3cd0d3" fill-opacity="0.14"/>
  <circle cx="80" cy="420" r="18" fill="#2446b5" fill-opacity="0.18"/>
</svg>
