<svg class="lab-visual lab-visual--globe" viewBox="0 0 320 220" role="img" aria-label="Network of partner institutions">
  <g class="lab-visual__rings lab-visual__rings--globe">
    <ellipse cx="160" cy="110" rx="96" ry="96"/>
    <ellipse cx="160" cy="110" rx="96" ry="36"/>
    <ellipse cx="160" cy="110" rx="36" ry="96"/>
    <ellipse cx="160" cy="110" rx="68" ry="96" transform="rotate(45 160 110)"/>
    <ellipse cx="160" cy="110" rx="96" ry="68" transform="rotate(45 160 110)"/>
  </g>

  <g class="lab-visual__nodes lab-visual__nodes--globe">
    <circle cx="100" cy="62"  r="3.5"/>
    <circle cx="208" cy="48"  r="3.5"/>
    <circle cx="232" cy="118" r="3.5"/>
    <circle cx="142" cy="166" r="3.5"/>
    <circle cx="78"  cy="142" r="3.5"/>
    <circle cx="178" cy="92"  r="4.5" class="lab-visual__node--hub"/>
    <circle cx="118" cy="98"  r="2.5"/>
    <circle cx="244" cy="84"  r="2.5"/>
    <circle cx="74"  cy="92"  r="2.5"/>
  </g>

  <g class="lab-visual__beams">
    <line x1="178" y1="92" x2="100" y2="62"/>
    <line x1="178" y1="92" x2="208" y2="48"/>
    <line x1="178" y1="92" x2="232" y2="118"/>
    <line x1="178" y1="92" x2="142" y2="166"/>
    <line x1="178" y1="92" x2="78"  y2="142"/>
  </g>
</svg>
